<mxfile host="app.diagrams.net" modified="2021-03-21T21:03:58.410Z" agent="5.0 (Windows NT 10.0; Win64; x64) AppleWebKit/537.36 (KHTML, like Gecko) Chrome/89.0.4389.90 Safari/537.36" etag="9itQk-jZ3KnAtpWxiptl" version="14.4.9" type="github">
  <diagram id="W0bkhCQVfAG-sMZAJGLT" name="Page-1">
    <mxGraphModel dx="1422" dy="804" grid="1" gridSize="10" guides="1" tooltips="1" connect="1" arrows="1" fold="1" page="1" pageScale="1" pageWidth="850" pageHeight="1100" math="0" shadow="0">
      <root>
        <mxCell id="0" />
        <mxCell id="1" parent="0" />
        <mxCell id="IG4bDnOUPeUjXYZD1gY5-44" value="&lt;p style=&quot;margin: 0px ; margin-top: 4px ; text-align: center&quot;&gt;&lt;br&gt;&lt;b&gt;Cosmos DB Account&lt;/b&gt;&lt;/p&gt;" style="verticalAlign=top;align=left;overflow=fill;fontSize=12;fontFamily=Helvetica;html=1;labelBackgroundColor=none;fillColor=#CCE5FF;" vertex="1" parent="1">
          <mxGeometry x="40" y="20" width="460" height="610" as="geometry" />
        </mxCell>
        <mxCell id="IG4bDnOUPeUjXYZD1gY5-14" value="&amp;lt;SQL container 1&amp;gt;" style="rounded=1;whiteSpace=wrap;html=1;fontSize=16;fillColor=#99CCFF;" vertex="1" parent="1">
          <mxGeometry x="110" y="100" width="360" height="20" as="geometry" />
        </mxCell>
        <mxCell id="IG4bDnOUPeUjXYZD1gY5-15" value="&amp;lt;Gremlin container N&amp;gt;" style="rounded=1;whiteSpace=wrap;html=1;fontSize=16;" vertex="1" parent="1">
          <mxGeometry x="140" y="180" width="330" height="20" as="geometry" />
        </mxCell>
        <mxCell id="IG4bDnOUPeUjXYZD1gY5-21" value="&amp;lt;Cassandra container 1&amp;gt;" style="rounded=1;whiteSpace=wrap;html=1;fontSize=16;fillColor=#99CCFF;" vertex="1" parent="1">
          <mxGeometry x="110" y="275" width="360" height="20" as="geometry" />
        </mxCell>
        <mxCell id="IG4bDnOUPeUjXYZD1gY5-22" value="&amp;lt;Cassandra container N&amp;gt;" style="rounded=1;whiteSpace=wrap;html=1;fontSize=16;fillColor=#99CCFF;" vertex="1" parent="1">
          <mxGeometry x="110" y="305" width="360" height="20" as="geometry" />
        </mxCell>
        <mxCell id="IG4bDnOUPeUjXYZD1gY5-24" value="&amp;lt;SQL container 2&amp;gt;" style="rounded=1;whiteSpace=wrap;html=1;fontSize=16;fillColor=#99CCFF;" vertex="1" parent="1">
          <mxGeometry x="110" y="127" width="360" height="20" as="geometry" />
        </mxCell>
        <mxCell id="IG4bDnOUPeUjXYZD1gY5-28" value="&amp;lt;SQL container 1&amp;gt;" style="rounded=1;whiteSpace=wrap;html=1;fontSize=16;fillColor=#99CCFF;" vertex="1" parent="1">
          <mxGeometry x="110" y="390" width="360" height="20" as="geometry" />
        </mxCell>
        <mxCell id="IG4bDnOUPeUjXYZD1gY5-29" value="&amp;lt;MongoDB container N&amp;gt;" style="rounded=1;whiteSpace=wrap;html=1;fontSize=16;fillColor=#99CCFF;" vertex="1" parent="1">
          <mxGeometry x="110" y="420" width="360" height="20" as="geometry" />
        </mxCell>
        <mxCell id="IG4bDnOUPeUjXYZD1gY5-30" value="&amp;lt;Table container N&amp;gt;" style="rounded=1;whiteSpace=wrap;html=1;fontSize=16;fillColor=#99CCFF;" vertex="1" parent="1">
          <mxGeometry x="110" y="450" width="360" height="20" as="geometry" />
        </mxCell>
        <mxCell id="IG4bDnOUPeUjXYZD1gY5-31" value="&lt;b&gt;&lt;font style=&quot;font-size: 19px&quot;&gt;...&lt;/font&gt;&lt;/b&gt;" style="text;html=1;strokeColor=none;fillColor=none;align=center;verticalAlign=middle;whiteSpace=wrap;rounded=0;fontSize=16;" vertex="1" parent="1">
          <mxGeometry x="245" y="530" width="40" height="20" as="geometry" />
        </mxCell>
        <mxCell id="IG4bDnOUPeUjXYZD1gY5-33" value="&lt;b&gt;...&lt;/b&gt;" style="rounded=1;whiteSpace=wrap;html=1;fontSize=16;" vertex="1" parent="1">
          <mxGeometry x="140" y="153" width="330" height="20" as="geometry" />
        </mxCell>
        <mxCell id="IG4bDnOUPeUjXYZD1gY5-34" value="&lt;b&gt;...&lt;/b&gt;" style="rounded=1;whiteSpace=wrap;html=1;fontSize=16;fillColor=#99CCFF;" vertex="1" parent="1">
          <mxGeometry x="110" y="153" width="360" height="20" as="geometry" />
        </mxCell>
        <mxCell id="IG4bDnOUPeUjXYZD1gY5-35" value="&amp;lt;Gremlin container N&amp;gt;" style="rounded=1;whiteSpace=wrap;html=1;fontSize=16;fillColor=#99CCFF;" vertex="1" parent="1">
          <mxGeometry x="110" y="180" width="360" height="20" as="geometry" />
        </mxCell>
        <mxCell id="IG4bDnOUPeUjXYZD1gY5-20" value="DB 2" style="shape=cylinder3;whiteSpace=wrap;html=1;boundedLbl=1;backgroundOutline=1;size=15;fillColor=#E3FDFF;" vertex="1" parent="1">
          <mxGeometry x="60" y="260" width="60" height="80" as="geometry" />
        </mxCell>
        <mxCell id="IG4bDnOUPeUjXYZD1gY5-2" value="DB 1" style="shape=cylinder3;whiteSpace=wrap;html=1;boundedLbl=1;backgroundOutline=1;size=15;fillColor=#E3FDFF;" vertex="1" parent="1">
          <mxGeometry x="60" y="70" width="60" height="150" as="geometry" />
        </mxCell>
        <mxCell id="IG4bDnOUPeUjXYZD1gY5-27" value="DB 3" style="shape=cylinder3;whiteSpace=wrap;html=1;boundedLbl=1;backgroundOutline=1;size=15;fillColor=#E3FDFF;" vertex="1" parent="1">
          <mxGeometry x="60" y="370" width="60" height="110" as="geometry" />
        </mxCell>
        <mxCell id="IG4bDnOUPeUjXYZD1gY5-36" value="&lt;b&gt;&lt;font style=&quot;font-size: 17px&quot;&gt;...&lt;/font&gt;&lt;/b&gt;" style="rounded=1;whiteSpace=wrap;html=1;fontSize=16;fillColor=#99CCFF;" vertex="1" parent="1">
          <mxGeometry x="110" y="540" width="360" height="20" as="geometry" />
        </mxCell>
        <mxCell id="IG4bDnOUPeUjXYZD1gY5-38" value="DB N" style="shape=cylinder3;whiteSpace=wrap;html=1;boundedLbl=1;backgroundOutline=1;size=15;fillColor=#E3FDFF;" vertex="1" parent="1">
          <mxGeometry x="60" y="510" width="60" height="80" as="geometry" />
        </mxCell>
      </root>
    </mxGraphModel>
  </diagram>
</mxfile>
